<?xml version="1.0" encoding="UTF-8"?>
<!DOCTYPE svg PUBLIC "-//W3C//DTD SVG 1.1//EN" "http://www.w3.org/Graphics/SVG/1.1/DTD/svg11.dtd">
<!-- Creator: CorelDRAW X7 -->
<svg xmlns="http://www.w3.org/2000/svg" xml:space="preserve" width="5700px" height="2865px" version="1.1" style="shape-rendering:geometricPrecision; text-rendering:geometricPrecision; image-rendering:optimizeQuality; fill-rule:evenodd; clip-rule:evenodd"
viewBox="0 0 5700 2865"
 xmlns:xlink="http://www.w3.org/1999/xlink">
 <defs>
  <style type="text/css">
   <![CDATA[
    .fil0 {fill:#ED3237}
    .fil1 {fill:#373435;fill-rule:nonzero}
    .fil2 {fill:#ED3237;fill-rule:nonzero}
   ]]>
  </style>
 </defs>
 <g id="Layer_x0020_1">
  <metadata id="CorelCorpID_0Corel-Layer"/>
  <g id="_346761728">
   <path class="fil0" d="M4978 708c9,-1 11,-16 6,-20 -1,7 -10,13 -6,20zm-312 284c-41,0 -75,13 -101,32 -27,101 -80,187 -162,225 264,-528 -423,-936 -831,-610 121,-211 653,-202 831,-20 -110,-304 -726,-311 -974,-95 318,-326 946,-266 1208,81 10,-71 59,-129 136,-121 -12,-8 -28,-12 -48,-13 34,-28 110,-13 135,19 -8,-23 -8,-72 12,-86 -8,84 63,107 109,144 15,13 29,32 27,61 15,-2 26,-27 46,-29 -10,23 -33,45 -40,77 -5,24 0,52 -13,74 -5,-1 -6,3 -12,0 -6,41 -25,67 -51,83 12,-21 24,-51 20,-83 -23,4 -33,41 -44,66 -4,-34 3,-63 19,-91 -16,-20 -35,-47 -30,-78 8,12 14,26 26,34 -8,-17 -10,-46 0,-67 9,22 16,47 38,58 14,-48 -54,-116 -98,-86 0,9 5,14 6,21 -38,-30 -116,-32 -156,-10 24,-33 62,-50 111,-54 -92,-19 -150,27 -174,106 6,9 12,18 17,28 6,-28 17,-53 33,-52 11,1 14,12 14,26 21,-32 68,-63 118,-39 -85,-6 -125,104 -78,165 -30,-9 -43,-32 -52,-59 -2,7 -2,14 -2,22 10,22 19,45 26,68 8,9 18,14 31,13 11,-2 20,-14 17,-30 18,17 33,47 40,79 4,-58 -1,-121 -7,-174 116,285 -47,569 -258,649 80,-77 113,-204 111,-334zm-88 -29c23,-1 51,3 88,13 -6,-162 -66,-327 -158,-404 68,92 93,249 70,391zm233 -49c-4,-28 -17,-49 -32,-69 -6,14 -17,20 -31,17 8,47 11,97 8,149 29,-20 46,-54 55,-97zm-521 -317c63,16 110,54 135,66 12,6 6,-43 -24,-143 0,0 73,12 148,199l-105 -140 19 159 -173 -141z"/>
   <path class="fil1" d="M696 2667l0 -477 45 0 0 438 243 0 0 39 -288 0zm340 -417l0 -60 40 0 0 60 -40 0zm0 417l0 -344 40 0 0 344 -40 0zm152 0l0 -312 -50 0 0 -32 50 0 0 -63c0,-26 7,-45 20,-57 12,-12 33,-18 62,-18 3,0 6,0 9,1 4,0 7,1 11,1l0 36c-1,0 -2,0 -4,0 -8,-1 -14,-1 -18,-1 -15,0 -25,3 -31,9 -6,6 -9,17 -9,32l0 60 62 0 0 32 -62 0 0 312 -40 0zm181 -165l0 2c0,42 10,76 30,101 20,25 48,37 82,37 27,0 49,-7 67,-22 18,-14 30,-34 33,-59l40 0c-4,35 -19,63 -45,84 -26,21 -59,31 -98,31 -47,0 -83,-16 -110,-47 -27,-32 -40,-76 -40,-133 0,-57 14,-102 40,-134 27,-32 64,-48 111,-48 47,0 83,15 108,46 26,31 39,74 39,129l0 13 -257 0zm0 -32l216 1c-2,-38 -12,-68 -31,-90 -19,-22 -44,-33 -75,-33 -32,0 -57,11 -77,33 -20,23 -31,52 -33,89zm491 52l43 0c1,38 13,67 36,88 23,21 56,31 99,31 37,0 66,-8 87,-25 21,-17 32,-40 32,-69 0,-28 -7,-48 -22,-63 -15,-14 -45,-27 -89,-38l-46 -11c-49,-13 -82,-29 -101,-48 -19,-20 -28,-47 -28,-82 0,-38 14,-70 42,-93 29,-23 66,-35 114,-35 50,0 89,13 117,38 28,26 43,62 43,108l-44 0c-1,-34 -11,-61 -32,-79 -20,-18 -49,-28 -86,-28 -35,0 -62,8 -81,24 -20,16 -29,38 -29,67 0,22 6,39 18,51 13,13 34,23 63,30l55 14c56,14 94,31 116,53 23,21 34,50 34,87 0,43 -15,77 -44,101 -29,25 -69,37 -120,37 -57,0 -101,-13 -131,-40 -31,-27 -46,-65 -46,-115l0 -3zm653 26l39 0c-3,40 -18,71 -43,93 -26,23 -59,35 -100,35 -46,0 -83,-16 -110,-48 -27,-32 -41,-76 -41,-131 0,-57 14,-102 42,-134 27,-33 64,-49 112,-49 39,0 70,11 95,32 25,22 39,51 41,86l-39 0c-3,-25 -13,-45 -31,-60 -18,-15 -40,-23 -66,-23 -35,0 -62,13 -82,39 -20,26 -30,61 -30,106 0,45 10,81 30,108 21,26 48,40 82,40 27,0 50,-9 68,-25 17,-17 29,-40 33,-69zm109 -298l0 -60 40 0 0 60 -40 0zm0 417l0 -344 40 0 0 344 -40 0zm156 -165l0 2c0,42 10,76 31,101 20,25 47,37 81,37 27,0 50,-7 68,-22 18,-14 29,-34 33,-59l40 0c-5,35 -20,63 -46,84 -25,21 -58,31 -97,31 -47,0 -84,-16 -110,-47 -27,-32 -40,-76 -40,-133 0,-57 13,-102 40,-134 26,-32 63,-48 111,-48 46,0 82,15 108,46 26,31 39,74 39,129l0 13 -258 0zm1 -32l216 1c-2,-38 -13,-68 -31,-90 -19,-22 -44,-33 -76,-33 -31,0 -57,11 -77,33 -19,23 -30,52 -32,89zm328 197l0 -344 38 0 0 55c13,-22 29,-37 48,-48 19,-11 41,-16 66,-16 24,0 45,4 63,12 17,9 31,21 41,36 5,8 8,18 10,29 3,12 4,30 4,56l0 10 0 210 -42 0 0 -214c0,-40 -6,-67 -18,-82 -13,-14 -34,-21 -66,-21 -32,0 -57,10 -76,30 -19,21 -28,49 -28,84l0 203 -40 0zm594 -119l40 0c-4,40 -18,71 -44,93 -25,23 -58,35 -99,35 -47,0 -84,-16 -111,-48 -27,-32 -40,-76 -40,-131 0,-57 14,-102 41,-134 27,-33 65,-49 112,-49 39,0 71,11 96,32 25,22 38,51 40,86l-38 0c-3,-25 -14,-45 -32,-60 -18,-15 -40,-23 -66,-23 -34,0 -61,13 -82,39 -20,26 -30,61 -30,106 0,45 10,81 31,108 20,26 48,40 82,40 27,0 49,-9 67,-25 18,-17 29,-40 33,-69zm129 -46l0 2c0,42 10,76 30,101 21,25 48,37 82,37 27,0 50,-7 68,-22 18,-14 29,-34 33,-59l40 0c-5,35 -20,63 -46,84 -26,21 -58,31 -98,31 -46,0 -83,-16 -110,-47 -26,-32 -40,-76 -40,-133 0,-57 14,-102 41,-134 26,-32 63,-48 111,-48 46,0 82,15 108,46 25,31 38,74 38,129l0 13 -257 0zm1 -32l215 1c-1,-38 -12,-68 -31,-90 -18,-22 -44,-33 -75,-33 -31,0 -57,11 -77,33 -20,23 -31,52 -32,89zm349 197l0 -59 44 0 0 59 -44 0z"/>
   <path class="fil2" d="M659 1992l0 -1240 314 0 333 948 337 -948 312 0 0 1240 -230 0 0 -929 -320 929 -195 0 -321 -929 0 929 -230 0zm1408 0l517 -1240 180 0 522 1240 -254 0 -134 -320 -440 0 -137 320 -254 0zm475 -544l265 0 -132 -375 -133 375zm779 195l240 0c0,50 17,89 52,117 35,27 75,41 121,41 43,0 81,-15 113,-45 32,-29 48,-66 48,-111 0,-62 -20,-106 -59,-134 -39,-28 -82,-50 -129,-66 -5,-2 -9,-4 -14,-6 -5,-1 -10,-3 -15,-4 -3,-1 -6,-2 -9,-3 -3,-1 -6,-3 -9,-4 -37,-12 -72,-26 -104,-41 -33,-15 -63,-37 -93,-66 -25,-27 -46,-58 -62,-92 -17,-35 -28,-71 -33,-108 0,-6 0,-13 -1,-19 -1,-6 -1,-13 -1,-19 0,-102 37,-186 109,-253 73,-66 159,-100 257,-100 96,0 181,35 254,103 73,69 110,152 108,250l-236 -2c-1,-38 -16,-69 -44,-92 -28,-24 -60,-36 -95,-36 -37,0 -67,13 -89,37 -23,25 -34,55 -34,91 0,0 0,0 0,1 0,0 0,1 0,1 0,0 0,0 0,1 0,0 0,0 0,0 -1,41 12,71 40,93 28,21 59,38 93,50 3,1 7,2 11,4 5,2 9,3 12,4 6,3 11,5 17,6 5,2 11,4 17,6 38,12 74,26 110,41 35,15 68,36 98,61 44,35 77,76 99,122 21,47 32,100 32,160 0,111 -40,204 -120,279 -79,75 -173,112 -283,112 -105,0 -198,-35 -279,-107 -82,-72 -122,-162 -122,-270l0 -2z"/>
  </g>
 </g>
</svg>
