<?xml version="1.0" encoding="UTF-8"?>
<!DOCTYPE svg PUBLIC "-//W3C//DTD SVG 1.1//EN" "http://www.w3.org/Graphics/SVG/1.1/DTD/svg11.dtd">
<!-- Creator: CorelDRAW X7 -->
<svg xmlns="http://www.w3.org/2000/svg" xml:space="preserve" width="5700px" height="2865px" version="1.1" style="shape-rendering:geometricPrecision; text-rendering:geometricPrecision; image-rendering:optimizeQuality; fill-rule:evenodd; clip-rule:evenodd"
viewBox="0 0 5700 2865"
 xmlns:xlink="http://www.w3.org/1999/xlink">
 <defs>
  <style type="text/css">
   <![CDATA[
    .fil4 {fill:#019EC9}
    .fil2 {fill:#049EC2}
    .fil3 {fill:#5F5D5E}
    .fil1 {fill:#727376;fill-rule:nonzero}
    .fil0 {fill:#04A3C0;fill-rule:nonzero}
   ]]>
  </style>
 </defs>
 <g id="Layer_x0020_1">
  <metadata id="CorelCorpID_0Corel-Layer"/>
  <g id="_277258480">
   <path class="fil0" d="M1955 2101l0 -414 -256 -561 201 0 148 366 145 -366 196 0 -251 561 0 414 -183 0zm639 -392l154 0 -78 -409 -76 409zm-261 392l220 -975 243 0 221 975 -195 0 -48 -245 -209 0 -47 245 -185 0zm759 -343l181 0 0 63c0,60 8,101 23,122 15,22 41,33 77,33 39,0 68,-10 88,-29 20,-19 30,-48 30,-86 0,-29 -7,-54 -21,-75 -14,-21 -44,-48 -90,-81l-93 -66c-81,-55 -132,-101 -153,-138 -22,-36 -33,-82 -33,-137 0,-81 24,-146 73,-192 48,-46 115,-70 200,-70 91,0 160,25 208,75 48,49 72,120 72,212 0,9 0,17 0,22 0,5 0,9 -1,13l-172 0 0 -26c0,-53 -9,-91 -26,-114 -17,-22 -46,-34 -86,-34 -29,0 -51,9 -68,26 -17,17 -25,41 -25,71 0,41 37,87 112,137l2 1 100 67c71,48 119,92 145,134 25,42 38,96 38,161 0,88 -26,157 -76,205 -51,48 -123,72 -217,72 -98,0 -171,-25 -219,-76 -48,-50 -72,-128 -72,-232 0,-10 1,-28 3,-54l0 -4zm707 0l181 0 0 63c0,60 8,101 23,122 15,22 41,33 77,33 39,0 68,-10 88,-29 20,-19 30,-48 30,-86 0,-29 -7,-54 -21,-75 -14,-21 -44,-48 -90,-81l-93 -66c-81,-55 -132,-101 -153,-138 -22,-36 -33,-82 -33,-137 0,-81 24,-146 73,-192 48,-46 115,-70 200,-70 91,0 160,25 208,75 48,49 72,120 72,212 0,9 0,17 0,22 0,5 0,9 -1,13l-172 0 0 -26c0,-53 -9,-91 -26,-114 -17,-22 -46,-34 -86,-34 -29,0 -51,9 -68,26 -17,17 -25,41 -25,71 0,41 37,87 112,137l2 1 100 67c71,48 119,92 145,134 25,42 38,96 38,161 0,88 -26,157 -76,205 -51,48 -123,72 -217,72 -98,0 -171,-25 -219,-76 -48,-50 -72,-128 -72,-232 0,-10 1,-28 3,-54l0 -4zm725 343l0 -975 180 0 0 382 249 0 0 -382 180 0 0 975 -180 0 0 -442 -249 0 0 442 -180 0z"/>
   <path class="fil1" d="M1898 2460l0 -37c0,-12 -2,-21 -8,-25 -6,-5 -18,-7 -37,-7l-78 0 0 101 78 0c18,0 31,-2 37,-7 5,-5 8,-13 8,-25zm-151 156l0 -252 106 0c28,0 48,5 59,13 10,8 15,23 15,45l0 38c0,22 -5,37 -15,46 -11,8 -30,12 -59,12l-78 0 0 98 -28 0zm227 0l0 -252 28 0 0 109 145 0 0 -109 27 0 0 252 -27 0 0 -117 -145 0 0 117 -28 0zm296 -89l109 0 -50 -136 -9 0 -50 136zm-61 89l93 -252 45 0 94 252 -29 0 -24 -64 -127 0 -24 64 -28 0zm374 -225l-81 0 0 101 81 0c21,0 34,-3 41,-8 6,-5 10,-14 10,-28l0 -29c0,-14 -3,-23 -10,-28 -6,-5 -20,-8 -41,-8zm-108 225l0 -252 113 0c29,0 48,5 59,13 10,8 16,23 16,45l0 38c0,13 -3,23 -8,31 -6,7 -14,12 -25,14 12,3 21,8 25,15 5,8 8,20 8,36l0 60 -29 0 0 -52c0,-18 -3,-30 -9,-36 -6,-7 -17,-10 -33,-10l-90 0 0 98 -27 0zm242 0l0 -252 46 0 86 225 85 -225 46 0 0 252 -27 0 0 -228 -87 228 -35 0 -87 -228 0 228 -27 0zm359 -89l109 0 -50 -136 -9 0 -50 136zm-61 89l93 -252 45 0 94 252 -29 0 -24 -64 -127 0 -24 64 -28 0zm258 -168c0,-33 6,-55 18,-68 13,-12 34,-19 66,-19l29 0c31,0 53,6 65,17 13,11 19,29 19,55l0 11 -29 0 0 -7c0,-19 -3,-32 -11,-39 -8,-7 -23,-10 -46,-10l-19 0c-16,0 -27,1 -34,2 -7,2 -12,5 -17,10 -5,4 -8,10 -10,17 -2,6 -2,19 -2,37l0 72c0,18 0,31 2,38 2,7 5,12 10,17 5,4 10,7 17,9 6,2 18,3 34,3l19 0c23,0 39,-4 46,-11 8,-7 12,-21 12,-42 0,-3 0,-6 0,-7 0,-2 0,-4 0,-5l28 0 0 16c0,28 -6,48 -18,59 -12,11 -34,16 -66,16l-29 0c-32,0 -53,-6 -66,-19 -12,-12 -18,-35 -18,-67l0 -85zm244 168l0 -252 177 0 0 27 -149 0 0 82 145 0 0 26 -145 0 0 91 149 0 0 26 -177 0zm219 -252l28 0 0 166c0,16 1,27 3,34 2,6 5,11 9,15 4,4 10,7 16,9 6,1 17,2 32,2l27 0c15,0 26,-1 32,-2 7,-2 12,-5 17,-9 4,-4 7,-9 8,-15 2,-7 3,-18 3,-34l0 -166 28 0 0 169c0,32 -6,55 -19,67 -13,13 -35,19 -67,19l-31 0c-32,0 -54,-6 -67,-19 -13,-12 -19,-35 -19,-67l0 -169zm227 27l0 -27 189 0 0 27 -81 0 0 225 -28 0 0 -225 -80 0zm215 225l0 -252 28 0 0 252 -28 0zm81 -168c0,-33 6,-55 19,-68 12,-12 34,-19 65,-19l30 0c31,0 52,6 65,17 12,11 19,29 19,55l0 11 -29 0 0 -7c0,-19 -4,-32 -12,-39 -8,-7 -23,-10 -46,-10l-19 0c-15,0 -26,1 -33,2 -7,2 -13,5 -18,10 -4,4 -7,10 -9,17 -2,6 -3,19 -3,37l0 72c0,18 1,31 3,38 2,7 5,12 9,17 5,4 11,7 17,9 7,2 18,3 34,3l19 0c24,0 39,-4 47,-11 7,-7 11,-21 11,-42 0,-3 0,-6 0,-7 0,-2 0,-4 0,-5l29 0 0 16c0,28 -6,48 -19,59 -12,11 -34,16 -65,16l-30 0c-31,0 -53,-6 -65,-19 -13,-12 -19,-35 -19,-67l0 -85zm274 79l109 0 -51 -136 -9 0 -49 136zm-62 89l93 -252 46 0 93 252 -28 0 -24 -64 -128 0 -23 64 -29 0zm266 0l0 -252 28 0 0 226 142 0 0 26 -170 0zm200 -82l28 0 0 5c0,15 1,26 3,33 3,7 6,12 12,15 4,2 10,4 18,5 9,1 26,1 53,1 14,0 25,-1 33,-3 8,-1 14,-4 17,-9 3,-2 4,-6 5,-11 1,-5 2,-13 2,-22 0,-19 -2,-30 -6,-35 -4,-5 -11,-8 -22,-9l-78 -6c-23,-2 -39,-8 -48,-17 -9,-10 -14,-27 -14,-50 0,-15 2,-26 5,-35 3,-9 8,-16 14,-22 5,-5 12,-8 21,-10 10,-2 26,-3 49,-3l9 0c26,0 44,2 54,4 11,3 20,7 27,13 5,4 8,10 11,17 2,8 3,17 3,28 0,3 0,6 0,8 0,1 0,3 0,4l-28 0 0 -6c0,-9 -1,-16 -2,-21 -1,-5 -3,-9 -5,-11 -4,-3 -10,-6 -19,-7 -9,-2 -26,-2 -51,-2 -26,0 -42,3 -49,8 -6,6 -10,18 -10,36 0,14 2,24 7,29 4,6 12,9 25,10l79 7c21,1 35,7 44,17 8,9 12,26 12,48 0,17 -1,29 -3,37 -2,9 -6,15 -11,21 -6,7 -14,12 -24,14 -11,3 -29,5 -57,5l-12 0c-23,0 -40,-2 -49,-4 -10,-2 -18,-6 -25,-12 -6,-6 -11,-13 -13,-22 -3,-10 -5,-21 -5,-36l0 -12z"/>
   <path class="fil2" d="M1623 2745c-1078,-746 -653,-1937 360,-2469 -819,766 -1039,1407 -605,2138 65,110 154,205 245,331z"/>
   <path class="fil3" d="M925 2735c1078,-746 653,-1937 -361,-2469 819,767 1039,1407 605,2138 -65,110 -153,205 -244,331z"/>
   <path class="fil4" d="M1259 120c118,0 214,96 214,214 0,118 -96,214 -214,214 -118,0 -214,-96 -214,-214 0,-118 96,-214 214,-214z"/>
   <path class="fil3" d="M1276 121c110,8 197,101 197,213 0,112 -87,204 -197,213l0 -426z"/>
  </g>
 </g>
</svg>
