<?xml version="1.0" encoding="UTF-8"?>
<!DOCTYPE svg PUBLIC "-//W3C//DTD SVG 1.1//EN" "http://www.w3.org/Graphics/SVG/1.1/DTD/svg11.dtd">
<!-- Creator: CorelDRAW X7 -->
<svg xmlns="http://www.w3.org/2000/svg" xml:space="preserve" width="5700px" height="2865px" version="1.1" style="shape-rendering:geometricPrecision; text-rendering:geometricPrecision; image-rendering:optimizeQuality; fill-rule:evenodd; clip-rule:evenodd"
viewBox="0 0 5700 2865"
 xmlns:xlink="http://www.w3.org/1999/xlink">
 <defs>
  <style type="text/css">
   <![CDATA[
    .fil1 {fill:#ED3237}
    .fil2 {fill:#373435;fill-rule:nonzero}
    .fil3 {fill:#848688;fill-rule:nonzero}
    .fil0 {fill:#ED3237;fill-rule:nonzero}
   ]]>
  </style>
 </defs>
 <g id="Layer_x0020_1">
  <metadata id="CorelCorpID_0Corel-Layer"/>
  <g id="_272413128">
   <path class="fil0" d="M357 1557l-244 -919 125 0 141 603c13,62 28,125 38,187 25,-100 37,-156 43,-168l172 -622 147 0 131 465c35,116 57,222 72,325 13,-59 28,-125 47,-200l144 -590 122 0 -250 919 -119 0 -194 -700c-15,-60 -25,-94 -28,-110 -12,44 -22,78 -28,110l-194 700 -125 0 0 0zm1072 0l0 -919 122 0 0 919 -122 0zm334 0l0 -919 125 0 482 722 0 -722 115 0 0 919 -125 0 -481 -722 0 722 -116 0z"/>
   <path class="fil1" d="M3273 469c6,0 9,-12 6,-19 -3,7 -12,13 -6,19zm-288 263c-40,0 -68,12 -93,28 -25,93 -75,172 -150,209 243,-487 -391,-862 -766,-562 112,-194 603,-188 766,-19 -100,-278 -669,-288 -897,-88 293,-300 872,-243 1112,75 10,-65 53,-118 125,-112 -9,-6 -25,-10 -44,-13 32,-25 104,-9 125,19 -9,-22 -9,-66 10,-78 -6,75 59,97 100,131 15,13 28,31 28,56 12,-3 22,-25 41,-28 -10,22 -32,44 -38,72 -3,22 0,50 -12,69 -4,0 -4,3 -10,0 -6,37 -22,62 -47,75 10,-19 22,-47 19,-75 -22,3 -31,37 -41,62 -3,-31 4,-59 16,-84 -12,-19 -31,-44 -28,-72 9,10 16,22 25,31 -6,-15 -9,-43 0,-62 9,19 16,44 34,53 16,-44 -50,-106 -87,-78 -3,6 3,12 3,19 -34,-28 -106,-32 -144,-10 22,-31 56,-47 103,-50 -84,-18 -137,25 -159,97 3,10 9,19 16,25 6,-25 15,-47 28,-47 12,0 15,13 15,25 19,-31 63,-59 107,-37 -79,-3 -113,97 -72,153 -25,-9 -38,-28 -47,-53 0,6 -3,12 0,19 6,21 15,40 22,62 6,9 18,13 28,13 9,-4 19,-13 15,-29 16,16 32,44 38,72 3,-53 0,-109 -6,-159 106,262 -44,525 -238,597 72,-69 103,-188 103,-306l0 0zm-81 -29c19,0 47,4 81,13 -6,-150 -62,-300 -147,-372 63,84 85,231 66,359l0 0zm216 -43c-7,-25 -19,-44 -32,-63 -6,13 -15,16 -28,16 7,40 10,87 7,134 28,-15 43,-50 53,-87zm-482 -291c57,13 100,50 125,59 10,7 4,-40 -21,-131 0,0 65,10 134,181l-97 -128 19 147 -160 -128 0 0z"/>
   <path class="fil2" d="M311 2072l104 0c38,0 65,-6 80,-17 15,-11 23,-30 23,-57 0,-27 -9,-46 -26,-60 -16,-13 -41,-20 -74,-20l-107 0 0 154zm86 -323l-86 0 0 139 82 0c40,0 68,-5 84,-16 15,-10 23,-28 23,-54 0,-25 -7,-43 -22,-54 -15,-10 -42,-15 -81,-15zm-122 354l0 -386 128 0c22,0 40,1 53,3 13,3 24,7 34,13 14,8 26,19 34,34 8,14 13,31 13,49 0,19 -5,36 -16,50 -10,15 -24,26 -42,33 23,5 42,17 55,34 14,18 20,40 20,66 0,23 -5,42 -16,59 -11,17 -26,29 -45,37 -7,3 -19,5 -35,6 -16,2 -41,2 -76,2l-107 0zm341 -338l0 -48 32 0 0 48 -32 0zm0 338l0 -279 32 0 0 279 -32 0zm127 -139c0,38 8,67 24,87 17,21 40,31 70,31 30,0 54,-10 70,-30 17,-21 25,-50 25,-88 0,-38 -8,-67 -25,-87 -16,-21 -40,-31 -70,-31 -30,0 -53,10 -70,31 -16,20 -24,50 -24,87zm-34 0c0,-46 11,-83 34,-108 22,-26 54,-39 94,-39 41,0 73,13 95,39 23,25 34,62 34,108 0,47 -11,83 -34,108 -22,26 -54,38 -95,38 -40,0 -72,-12 -94,-38 -23,-25 -34,-61 -34,-108zm289 139l0 -26 181 -226 -172 0 0 -27 211 0 0 29 -179 222 187 0 0 28 -228 0zm460 -204l103 0c36,0 62,-7 78,-19 16,-12 24,-32 24,-59 0,-13 -3,-24 -8,-34 -5,-11 -12,-19 -21,-25 -7,-5 -16,-8 -26,-10 -10,-2 -26,-3 -49,-3l-15 0 -86 0 0 150zm-35 204l0 -386 129 0c30,0 51,1 65,3 13,3 25,7 35,13 15,8 27,20 35,35 8,15 12,32 12,52 0,23 -5,43 -16,60 -10,16 -26,27 -46,34 16,6 27,14 34,25 7,11 11,32 14,65l5 58c1,9 2,17 4,23 2,6 5,10 8,13l0 5 -39 0c-2,-4 -4,-9 -5,-15 -2,-7 -3,-15 -3,-24l-5 -51c-2,-36 -9,-58 -19,-68 -10,-10 -30,-15 -60,-15l-113 0 0 173 -35 0zm360 -133l0 2c0,34 8,61 24,81 17,20 39,30 66,30 22,0 40,-5 55,-17 15,-12 24,-28 27,-49l32 0c-3,29 -16,51 -37,68 -20,17 -47,26 -79,26 -38,0 -67,-13 -89,-39 -22,-25 -32,-61 -32,-107 0,-46 11,-83 32,-109 22,-26 52,-39 90,-39 38,0 67,13 88,38 21,25 31,60 31,104l0 11 -208 0zm0 -26l175 0c-2,-30 -10,-55 -25,-72 -16,-18 -36,-27 -61,-27 -26,0 -47,9 -63,27 -16,18 -24,42 -26,72zm266 159l0 -279 30 0 0 47c9,-18 21,-31 37,-40 15,-9 32,-14 51,-14 21,0 39,5 52,15 14,9 23,23 28,40 9,-18 22,-31 37,-41 15,-9 33,-14 53,-14 30,0 53,8 68,23 15,15 22,38 22,69l0 194 -33 0 0 -191c0,-24 -4,-41 -13,-51 -9,-10 -24,-15 -45,-15 -25,0 -45,7 -60,23 -15,15 -22,35 -22,60l0 174 -32 0 0 -188c0,-23 -5,-41 -15,-52 -9,-11 -24,-17 -44,-17 -25,0 -44,8 -59,24 -16,15 -23,36 -23,61l0 172 -32 0zm467 -133l0 2c0,34 8,61 24,81 17,20 39,30 67,30 21,0 40,-5 54,-17 15,-12 24,-28 27,-49l33 0c-4,29 -16,51 -37,68 -21,17 -48,26 -79,26 -38,0 -68,-13 -90,-39 -21,-25 -32,-61 -32,-107 0,-46 11,-83 32,-109 22,-26 52,-39 91,-39 37,0 66,13 87,38 21,25 31,60 31,104l0 11 -208 0zm0 -26l175 0c-1,-30 -10,-55 -25,-72 -15,-18 -36,-27 -61,-27 -25,0 -46,9 -62,27 -16,18 -25,42 -27,72zm287 20c0,38 8,67 25,87 16,21 39,31 69,31 30,0 54,-10 70,-30 16,-21 25,-50 25,-88 0,-38 -9,-67 -25,-87 -17,-21 -40,-31 -70,-31 -30,0 -53,10 -70,30 -16,21 -24,50 -24,88zm218 -247l0 386 -32 0 0 -47c-11,18 -24,32 -41,41 -16,9 -36,14 -57,14 -38,0 -68,-13 -90,-39 -22,-27 -33,-62 -33,-108 0,-45 12,-81 34,-107 22,-26 52,-40 91,-40 21,0 41,5 57,14 16,9 29,23 39,42l0 -156 32 0zm77 48l0 -48 32 0 0 48 -32 0zm0 338l0 -279 32 0 0 279 -32 0zm126 -133l0 2c0,34 8,61 25,81 16,20 38,30 66,30 22,0 40,-5 54,-17 15,-12 24,-28 27,-49l33 0c-4,29 -16,51 -37,68 -21,17 -48,26 -79,26 -38,0 -68,-13 -90,-39 -21,-25 -32,-61 -32,-107 0,-46 11,-83 33,-109 21,-26 51,-39 90,-39 37,0 66,13 87,38 21,25 31,60 31,104l0 11 -208 0zm0 -26l175 0c-1,-30 -10,-55 -25,-72 -15,-18 -36,-27 -61,-27 -25,0 -46,9 -62,27 -16,18 -25,42 -27,72zm254 72l32 0c1,20 9,35 22,47 14,12 32,18 53,18 23,0 42,-4 55,-13 14,-10 20,-22 20,-38 0,-23 -24,-40 -74,-52l-1 0c-40,-10 -67,-20 -81,-32 -13,-11 -20,-27 -20,-48 0,-24 9,-43 27,-58 17,-15 41,-23 69,-23 31,0 56,8 75,24 18,15 29,37 31,65l-33 0c-2,-19 -9,-34 -21,-44 -13,-11 -30,-16 -52,-16 -20,0 -35,4 -46,13 -11,9 -17,20 -17,35 0,24 25,43 76,54 7,2 12,3 15,4 32,8 54,18 66,30 13,11 19,28 19,49 0,23 -10,43 -29,58 -20,14 -45,22 -77,22 -33,0 -59,-9 -78,-26 -20,-17 -30,-40 -31,-69zm462 -113l82 0c38,0 66,-6 82,-18 17,-12 25,-32 25,-60 0,-26 -7,-46 -22,-58 -15,-12 -38,-18 -69,-18l-98 0 0 154zm-36 200l0 -386 135 0c42,0 74,9 95,27 21,18 32,45 32,81 0,38 -12,65 -36,83 -23,19 -60,28 -108,28l-82 0 0 167 -36 0zm360 -359l0 80 52 0 0 27 -52 0 0 203c0,12 2,20 5,24 3,4 8,5 16,5 3,0 7,0 11,0 4,-1 11,-2 20,-4l0 25c-8,3 -15,4 -22,5 -6,1 -12,1 -18,1 -16,0 -27,-4 -34,-12 -7,-8 -10,-23 -10,-44l0 -203 -38 0 0 -27 38 0 0 -80 32 0zm122 226l0 2c0,34 9,61 25,81 17,20 39,30 66,30 22,0 40,-5 55,-17 15,-12 24,-28 27,-49l32 0c-3,29 -16,51 -37,68 -21,17 -47,26 -79,26 -38,0 -68,-13 -89,-39 -22,-25 -32,-61 -32,-107 0,-46 10,-83 32,-109 22,-26 52,-39 90,-39 38,0 67,13 88,38 21,25 31,60 31,104l0 11 -209 0zm1 -26l175 0c-2,-30 -10,-55 -25,-72 -16,-18 -36,-27 -61,-27 -26,0 -47,9 -63,27 -16,18 -25,42 -26,72zm416 159l0 -386 36 0 0 355 197 0 0 31 -233 0zm315 -359l0 80 51 0 0 27 -51 0 0 203c0,12 1,20 4,24 3,4 8,5 16,5 3,0 7,0 11,0 5,-1 11,-2 20,-4l0 25c-8,3 -15,4 -21,5 -7,1 -13,1 -19,1 -16,0 -27,-4 -34,-12 -6,-8 -10,-23 -10,-44l0 -203 -38 0 0 -27 38 0 0 -80 33 0zm124 220c0,38 8,67 25,87 16,21 39,31 69,31 30,0 54,-10 70,-30 16,-21 25,-50 25,-88 0,-38 -9,-67 -25,-87 -17,-21 -40,-31 -70,-31 -30,0 -53,10 -70,30 -16,21 -24,50 -24,88zm218 -247l0 386 -32 0 0 -47c-11,18 -24,32 -41,41 -16,9 -36,14 -57,14 -38,0 -68,-13 -90,-39 -22,-27 -33,-62 -33,-108 0,-45 12,-81 34,-107 22,-26 52,-40 91,-40 21,0 41,5 57,14 16,9 29,23 39,42l0 -156 32 0zm91 386l0 -47 36 0 0 47 -36 0z"/>
   <path class="fil3" d="M253 2568l30 0c0,25 8,45 24,59 16,14 38,21 67,21 25,0 45,-5 59,-17 15,-11 22,-27 22,-47 0,-18 -5,-32 -15,-42 -10,-10 -31,-18 -61,-26l-31 -8c-33,-8 -56,-19 -68,-32 -13,-14 -19,-32 -19,-56 0,-26 9,-47 28,-63 20,-16 45,-24 77,-24 34,0 61,9 80,26 19,18 29,42 30,73l-31 0c0,-23 -7,-41 -21,-53 -14,-13 -34,-19 -59,-19 -24,0 -42,5 -55,16 -13,11 -20,26 -20,45 0,15 5,27 13,35 9,9 23,16 42,21l38 9c38,9 64,21 79,36 15,14 23,34 23,59 0,29 -10,52 -30,69 -20,17 -47,25 -82,25 -38,0 -68,-9 -89,-27 -21,-18 -31,-44 -31,-78l0 -2zm285 -186l0 -40 27 0 0 40 -27 0zm0 284l0 -234 27 0 0 234 -27 0zm90 0l0 -234 26 0 0 37c9,-14 20,-25 33,-32 13,-7 28,-11 45,-11 16,0 30,3 42,9 13,5 22,14 28,24 4,6 6,12 8,20 1,7 2,20 2,38l0 7 0 142 -28 0 0 -145c0,-28 -4,-46 -13,-56 -8,-10 -23,-15 -44,-15 -22,0 -39,7 -52,21 -13,14 -19,33 -19,57l0 138 -28 0zm261 -117c0,31 7,56 21,73 14,18 33,27 58,27 25,0 44,-9 58,-26 14,-18 21,-42 21,-74 0,-31 -7,-56 -21,-73 -14,-17 -33,-26 -58,-26 -26,0 -45,9 -59,26 -13,17 -20,41 -20,73zm183 -117l0 222c0,35 -10,62 -28,81 -19,18 -47,27 -83,27 -27,0 -49,-6 -66,-19 -17,-12 -26,-29 -28,-50l28 0c2,15 8,25 19,33 12,8 27,12 47,12 28,0 49,-7 63,-21 14,-14 21,-35 21,-62l0 -29c-9,15 -21,27 -34,35 -14,7 -30,11 -47,11 -32,0 -58,-11 -76,-33 -19,-22 -28,-52 -28,-90 0,-38 9,-68 28,-90 19,-22 44,-33 76,-33 18,0 33,4 47,12 13,8 25,19 34,34l0 -40 27 0zm211 111c-7,3 -17,5 -28,7 -11,1 -29,3 -54,4 -17,5 -30,11 -39,19 -9,9 -14,19 -14,31 0,13 5,24 15,32 9,7 22,11 38,11 25,0 45,-6 60,-19 14,-13 22,-30 22,-52l0 -33zm2 89c-13,13 -26,23 -41,30 -14,6 -29,10 -46,10 -24,0 -42,-6 -56,-19 -14,-12 -21,-29 -21,-49 0,-13 3,-25 9,-35 7,-10 16,-18 28,-24 14,-6 37,-10 70,-13 6,0 11,0 14,-1 2,0 5,-1 8,-1 22,-5 33,-14 33,-29 0,-18 -4,-31 -13,-39 -9,-8 -24,-12 -45,-12 -21,0 -37,4 -48,13 -11,9 -17,22 -18,39l-27 0c1,-24 9,-42 26,-56 17,-13 39,-20 67,-20 28,0 49,6 64,18 14,12 22,30 22,53l0 127c0,10 1,16 3,19 3,2 7,3 13,3 3,0 4,0 6,0 1,0 3,0 4,0l0 20c-3,1 -6,1 -10,2 -3,0 -6,0 -9,0 -11,0 -20,-3 -25,-8 -6,-5 -8,-14 -8,-24l0 -4zm116 -83c0,31 7,55 21,73 14,18 33,26 58,26 25,0 45,-8 59,-25 13,-18 20,-42 20,-74 0,-31 -7,-56 -21,-73 -13,-17 -33,-26 -58,-26 -26,0 -45,9 -59,26 -13,17 -20,41 -20,73zm-26 211l0 -328 27 0 0 42c9,-16 20,-28 33,-36 14,-8 30,-12 49,-12 32,0 57,11 76,33 18,22 28,52 28,90 0,39 -10,69 -29,90 -18,22 -44,33 -76,33 -18,0 -34,-4 -47,-11 -14,-8 -25,-20 -34,-36l0 135 -27 0zm277 -211c0,32 6,56 20,73 14,18 34,26 59,26 25,0 45,-8 58,-25 14,-18 21,-42 21,-74 0,-31 -7,-56 -21,-73 -13,-17 -33,-26 -58,-26 -25,0 -45,9 -59,26 -14,17 -20,42 -20,73zm-28 0c0,-39 9,-69 28,-91 18,-21 45,-32 79,-32 34,0 60,11 79,32 19,22 29,52 29,91 0,39 -10,69 -29,91 -18,21 -45,32 -79,32 -34,0 -61,-11 -79,-32 -19,-22 -28,-52 -28,-91zm263 117l0 -234 26 0 0 41c7,-16 16,-27 28,-35 12,-8 27,-12 44,-12l3 0 0 29 -3 0c-24,0 -41,6 -53,20 -11,14 -17,35 -17,62l0 129 -28 0zm154 -112l0 1c0,29 7,52 21,69 13,17 32,25 55,25 18,0 34,-5 46,-15 12,-10 20,-23 23,-40l27 0c-3,24 -14,43 -31,57 -18,14 -40,21 -67,21 -31,0 -56,-11 -74,-32 -18,-22 -27,-52 -27,-90 0,-39 9,-69 27,-91 18,-22 43,-33 75,-33 32,0 56,11 74,31 17,21 26,51 26,88l0 9 -175 0zm0 -22l147 1c-1,-26 -8,-46 -21,-61 -13,-15 -30,-22 -51,-22 -22,0 -39,7 -52,22 -14,15 -21,35 -23,60z"/>
  </g>
 </g>
</svg>
